<svg width="32" height="32" viewBox="0 0 32 32" fill="none" xmlns="http://www.w3.org/2000/svg">
  <defs>
    <linearGradient id="heartGradient" x1="0%" y1="0%" x2="100%" y2="100%">
      <stop offset="0%" style="stop-color:#D8A7B1;stop-opacity:1" />
      <stop offset="100%" style="stop-color:#A7C4A0;stop-opacity:1" />
    </linearGradient>
  </defs>
  <path d="M16 28c-1.1 0-2-.9-2-2 0-.3.1-.6.2-.9L16 20.5l1.8 4.6c.1.3.2.6.2.9 0 1.1-.9 2-2 2zM8 16c0-4.4 3.6-8 8-8s8 3.6 8 8c0 2.2-.9 4.2-2.3 5.7L16 28l-5.7-6.3C8.9 20.2 8 18.2 8 16z" fill="url(#heartGradient)"/>
  <path d="M16 6c-5.5 0-10 4.5-10 10 0 2.5.9 4.8 2.4 6.6L16 30l7.6-7.4c1.5-1.8 2.4-4.1 2.4-6.6 0-5.5-4.5-10-10-10zm0 18l-6.4-6.2c-1.2-1.4-1.8-3.2-1.8-5.1 0-4.4 3.6-8 8-8s8 3.6 8 8c0 1.9-.6 3.7-1.8 5.1L16 24z" fill="#D8A7B1" opacity="0.3"/>
</svg>