<svg width="512" height="512" viewBox="0 0 512 512" fill="none" xmlns="http://www.w3.org/2000/svg">
  <defs>
    <linearGradient id="heartGradient" x1="0%" y1="0%" x2="100%" y2="100%">
      <stop offset="0%" style="stop-color:#D8A7B1;stop-opacity:1" />
      <stop offset="100%" style="stop-color:#A7C4A0;stop-opacity:1" />
    </linearGradient>
  </defs>
  <rect width="512" height="512" rx="64" fill="url(#heartGradient)"/>
  <path d="M256 448c-17.6 0-32-14.4-32-32 0-4.8 1.6-9.6 3.2-14.4L256 328l28.8 73.6c1.6 4.8 3.2 9.6 3.2 14.4 0 17.6-14.4 32-32 32zM128 256c0-70.4 57.6-128 128-128s128 57.6 128 128c0 35.2-14.4 67.2-36.8 91.2L256 448l-91.2-100.8C142.4 323.2 128 291.2 128 256z" fill="white"/>
  <path d="M256 96c-88 0-160 72-160 160 0 40 24 76.8 38.4 105.6L256 480l121.6-118.4c14.4-28.8 38.4-65.6 38.4-105.6 0-88-72-160-160-160zm0 288l-102.4-99.2c-19.2-22.4-28.8-51.2-28.8-81.6 0-70.4 57.6-128 128-128s128 57.6 128 128c0 30.4-9.6 59.2-28.8 81.6L256 384z" fill="white" opacity="0.2"/>
</svg>